<svg width="1030" height="193" viewBox="0 0 1030 193" fill="none" xmlns="http://www.w3.org/2000/svg">
<path d="M5.76562 148V49.5625H18V148H5.76562ZM25.0312 148V135.906C34.5938 135.906 41.0156 134.406 44.2969 131.406C47.1094 128.781 48.5156 125.078 48.5156 120.297V77.2656C48.5156 69.0156 43.7812 64.0469 34.3125 62.3594C31.6875 61.8906 28.5938 61.6562 25.0312 61.6562V49.5625C41.7188 49.5625 52.6406 54.4375 57.7969 64.1875C59.8594 67.9375 60.8906 72.2969 60.8906 77.2656V120.297C60.8906 137.922 50.1562 147.156 28.6875 148C27.4688 148 26.25 148 25.0312 148ZM71.7188 127.188V92.4531C71.7188 88.0469 73.6875 83.7344 77.625 79.5156C82.5 74.4531 88.5938 71.9219 95.9062 71.9219V83.3125C90.375 83.3125 86.5312 85.6094 84.375 90.2031C83.7188 91.6094 83.3906 93.0156 83.3906 94.4219V125.359C83.3906 128.828 84.9844 131.781 88.1719 134.219C90.4219 135.906 93 136.75 95.9062 136.75V148.141C87 148.141 80.1094 144.531 75.2344 137.312C72.8906 133.75 71.7188 130.375 71.7188 127.188ZM101.953 148.141V136.75C106.922 136.75 110.484 134.5 112.641 130C113.391 128.5 113.766 127.047 113.766 125.641V94.4219C113.766 90.5781 112.125 87.5312 108.844 85.2812C106.781 83.9688 104.438 83.3125 101.812 83.3125V71.9219C110.438 71.9219 117.094 75.4375 121.781 82.4688C124.125 85.9375 125.297 89.2656 125.297 92.4531V127.188C125.297 131.781 123.328 136.234 119.391 140.547C114.797 145.516 108.984 148.047 101.953 148.141ZM133.031 84.1562V72.7656H142.312V48.4375H154.266V72.7656H163.266V84.2969H154.266V124.656C154.266 131.312 156.984 135.016 162.422 135.766C163.453 135.953 164.484 136.047 165.516 136.047H167.484L170.156 148H165.094C153.562 147.906 146.484 143.594 143.859 135.062C142.922 131.875 142.453 127.938 142.453 123.25L142.312 84.1562H133.031ZM177.469 88.7969H186.328V148H197.438V88.7969H213.469V148H224.578V78.3906H197.438V70.375C197.625 64.4688 200.062 61.2344 204.75 60.6719H207.844L210.234 50.125H205.453C197.203 50.125 191.438 54.0625 188.156 61.9375C186.938 64.8438 186.328 67.6562 186.328 70.375V78.3906H177.469V88.7969ZM212.062 62.9219C212.062 65.8281 213.422 67.8906 216.141 69.1094C217.078 69.4844 218.016 69.6719 218.953 69.6719C221.859 69.6719 223.969 68.3594 225.281 65.7344C225.656 64.7969 225.844 63.8594 225.844 62.9219C225.844 59.9219 224.484 57.8125 221.766 56.5938C220.922 56.2188 219.984 56.0312 218.953 56.0312C215.953 56.0312 213.844 57.3906 212.625 60.1094C212.25 61.0469 212.062 61.9844 212.062 62.9219ZM246.234 148V48.7188H258.75V148H246.234ZM270.141 127.188V92.3125C270.234 88 272.297 83.7344 276.328 79.5156C281.203 74.5469 287.109 72.0156 294.047 71.9219V83.0312C289.547 83.0312 286.031 85 283.5 88.9375C282.469 90.625 281.953 92.1719 281.953 93.5781V103.141H313.453V93.5781C313.453 89.3594 311.297 86.2656 306.984 84.2969C305.016 83.3594 303 82.8906 300.938 82.8906V71.9219C307.406 71.9219 313.172 74.2188 318.234 78.8125C322.453 82.8438 324.609 87.2969 324.703 92.1719V114.531H281.953V127.188C281.953 129.812 283.453 132.25 286.453 134.5C288.891 136.188 291.469 137.031 294.188 137.031V148C285.656 148 278.953 144.531 274.078 137.594C271.453 133.938 270.141 130.469 270.141 127.188ZM300.938 148V136.891C306.562 136.891 310.781 134.453 313.594 129.578C314.156 128.547 314.578 127.562 314.859 126.625L324.844 130.281C323.156 136.75 319.312 141.625 313.312 144.906C309.469 146.969 305.344 148 300.938 148ZM333.281 128.031L344.391 125.922C344.391 130.141 346.594 133.469 351 135.906C353.156 136.938 355.219 137.5 357.188 137.594V148.703C348.094 148.703 341.297 145.422 336.797 138.859C334.453 135.391 333.281 131.781 333.281 128.031ZM333.984 93.4375C333.984 84.9062 337.875 78.5781 345.656 74.4531C349.406 72.4844 353.156 71.5 356.906 71.5V82.4688C352.594 82.4688 349.266 84.25 346.922 87.8125C345.703 89.5938 345.094 91.4688 345.094 93.4375C345.094 96.4375 347.438 98.875 352.125 100.75C355.688 102.25 362.578 104.219 372.797 106.656C379.172 107.969 383.719 111.109 386.438 116.078C387.844 118.703 388.547 121.656 388.547 124.938C388.547 133.938 384.938 140.594 377.719 144.906C373.5 147.438 368.672 148.703 363.234 148.703V137.594C367.547 137.594 371.156 136.094 374.062 133.094C376.125 130.938 377.156 128.406 377.156 125.5C377.156 121.75 373.453 118.75 366.047 116.5C364.172 115.938 361.172 115.141 357.047 114.109C352.641 113.078 349.453 112.234 347.484 111.578C340.359 108.766 336.047 104.5 334.547 98.7812C334.172 97.0938 333.984 95.3125 333.984 93.4375ZM363.094 82.6094V71.5C371.156 71.5 377.672 74.5 382.641 80.5C385.734 84.3438 387.281 88.375 387.281 92.5938L376.172 94.4219C376.172 89.2656 373.359 85.6562 367.734 83.5938C366.047 82.9375 364.5 82.6094 363.094 82.6094Z" fill="#00ADD8"/>
<rect x="57" y="162" width="327" height="2" fill="#939393"/>
</svg>
