<svg width="1005" height="240" viewBox="0 0 1005 240" fill="none" xmlns="http://www.w3.org/2000/svg">
<rect y="40" width="713" height="200" rx="20" fill="#282828"/>
<path d="M78.0078 205V68.2812H95V205H78.0078ZM104.766 205V188.203C118.047 188.203 126.966 186.12 131.523 181.953C135.43 178.307 137.383 173.164 137.383 166.523V106.758C137.383 95.2995 130.807 88.3984 117.656 86.0547C114.01 85.4036 109.714 85.0781 104.766 85.0781V68.2812C127.943 68.2812 143.112 75.0521 150.273 88.5938C153.138 93.8021 154.57 99.8568 154.57 106.758V166.523C154.57 191.003 139.661 203.828 109.844 205C108.151 205 106.458 205 104.766 205ZM169.609 176.094V127.852C169.609 121.732 172.344 115.742 177.812 109.883C184.583 102.852 193.047 99.3359 203.203 99.3359V115.156C195.521 115.156 190.182 118.346 187.188 124.727C186.276 126.68 185.82 128.633 185.82 130.586V173.555C185.82 178.372 188.034 182.474 192.461 185.859C195.586 188.203 199.167 189.375 203.203 189.375V205.195C190.833 205.195 181.263 200.182 174.492 190.156C171.237 185.208 169.609 180.521 169.609 176.094ZM211.602 205.195V189.375C218.503 189.375 223.451 186.25 226.445 180C227.487 177.917 228.008 175.898 228.008 173.945V130.586C228.008 125.247 225.729 121.016 221.172 117.891C218.307 116.068 215.052 115.156 211.406 115.156V99.3359C223.385 99.3359 232.63 104.219 239.141 113.984C242.396 118.802 244.023 123.424 244.023 127.852V176.094C244.023 182.474 241.289 188.659 235.82 194.648C229.44 201.549 221.367 205.065 211.602 205.195ZM254.766 116.328V100.508H267.656V66.7188H284.258V100.508H296.758V116.523H284.258V172.578C284.258 181.823 288.034 186.966 295.586 188.008C297.018 188.268 298.451 188.398 299.883 188.398H302.617L306.328 205H299.297C283.281 204.87 273.451 198.88 269.805 187.031C268.503 182.604 267.852 177.135 267.852 170.625L267.656 116.328H254.766ZM316.484 122.773H328.789V205H344.219V122.773H366.484V205H381.914V108.32H344.219V97.1875C344.479 88.9844 347.865 84.4922 354.375 83.7109H358.672L361.992 69.0625H355.352C343.893 69.0625 335.885 74.5312 331.328 85.4688C329.635 89.5052 328.789 93.4115 328.789 97.1875V108.32H316.484V122.773ZM364.531 86.8359C364.531 90.8724 366.419 93.737 370.195 95.4297C371.497 95.9505 372.799 96.2109 374.102 96.2109C378.138 96.2109 381.068 94.388 382.891 90.7422C383.411 89.4401 383.672 88.138 383.672 86.8359C383.672 82.6693 381.784 79.7396 378.008 78.0469C376.836 77.526 375.534 77.2656 374.102 77.2656C369.935 77.2656 367.005 79.1536 365.312 82.9297C364.792 84.2318 364.531 85.5339 364.531 86.8359ZM411.992 205V67.1094H429.375V205H411.992ZM445.195 176.094V127.656C445.326 121.667 448.19 115.742 453.789 109.883C460.56 102.982 468.763 99.4661 478.398 99.3359V114.766C472.148 114.766 467.266 117.5 463.75 122.969C462.318 125.312 461.602 127.461 461.602 129.414V142.695H505.352V129.414C505.352 123.555 502.357 119.258 496.367 116.523C493.633 115.221 490.833 114.57 487.969 114.57V99.3359C496.953 99.3359 504.961 102.526 511.992 108.906C517.852 114.505 520.846 120.69 520.977 127.461V158.516H461.602V176.094C461.602 179.74 463.685 183.125 467.852 186.25C471.237 188.594 474.818 189.766 478.594 189.766V205C466.745 205 457.435 200.182 450.664 190.547C447.018 185.469 445.195 180.651 445.195 176.094ZM487.969 205V189.57C495.781 189.57 501.641 186.185 505.547 179.414C506.328 177.982 506.914 176.615 507.305 175.312L521.172 180.391C518.828 189.375 513.49 196.146 505.156 200.703C499.818 203.568 494.089 205 487.969 205ZM532.891 177.266L548.32 174.336C548.32 180.195 551.38 184.818 557.5 188.203C560.495 189.635 563.359 190.417 566.094 190.547V205.977C553.464 205.977 544.023 201.419 537.773 192.305C534.518 187.487 532.891 182.474 532.891 177.266ZM533.867 129.219C533.867 117.37 539.271 108.581 550.078 102.852C555.286 100.117 560.495 98.75 565.703 98.75V113.984C559.714 113.984 555.091 116.458 551.836 121.406C550.143 123.88 549.297 126.484 549.297 129.219C549.297 133.385 552.552 136.771 559.062 139.375C564.01 141.458 573.581 144.193 587.773 147.578C596.628 149.401 602.943 153.763 606.719 160.664C608.672 164.31 609.648 168.411 609.648 172.969C609.648 185.469 604.635 194.714 594.609 200.703C588.75 204.219 582.044 205.977 574.492 205.977V190.547C580.482 190.547 585.495 188.464 589.531 184.297C592.396 181.302 593.828 177.786 593.828 173.75C593.828 168.542 588.685 164.375 578.398 161.25C575.794 160.469 571.628 159.362 565.898 157.93C559.779 156.497 555.352 155.326 552.617 154.414C542.721 150.508 536.732 144.583 534.648 136.641C534.128 134.297 533.867 131.823 533.867 129.219ZM574.297 114.18V98.75C585.495 98.75 594.544 102.917 601.445 111.25C605.742 116.589 607.891 122.188 607.891 128.047L592.461 130.586C592.461 123.424 588.555 118.411 580.742 115.547C578.398 114.635 576.25 114.18 574.297 114.18Z" fill="#98971A"/>
<rect x="175" y="223" width="426" height="2" fill="#939393"/>
</svg>
